<?xml version="1.0" encoding="UTF-8"?>
<svg id="Layer_2" data-name="Layer 2" xmlns="http://www.w3.org/2000/svg" viewBox="0 0 378.02 72.36">
  <defs>
    <style>
      .cls-1 {
        fill: #93d500;
      }

      .cls-2 {
        fill: #2c9942;
      }
    </style>
  </defs>
  <g id="Layer_1-2" data-name="Layer 1">
    <g>
      <path class="cls-1" d="M59.2,13.16c-14.53,0-26.31,11.78-26.31,26.31v13.16c0,7.27,5.89,13.16,13.16,13.16s13.16-5.89,13.16-13.16V13.16Z"/>
      <path class="cls-2" d="M0,46.04c0,14.53,11.78,26.31,26.31,26.31V13.16C26.31,5.89,20.42,0,13.16,0S0,5.89,0,13.16V46.04Z"/>
      <g>
        <path class="cls-1" d="M188.62,2.72c.48,0,.89,.17,1.24,.51,.34,.34,.51,.75,.51,1.23s-.25,.8-.75,.92c.36,.05,.77,.31,1.23,.77,.46,.46,.69,1.1,.69,1.91s-.29,1.52-.86,2.11c-.54,.56-1.07,.84-1.61,.85h0s-2.13,.01-2.13,.01V2.72h1.68Zm-.61,1.07v1.31h.7c.16-.01,.3-.07,.41-.18,.12-.11,.19-.27,.19-.46s-.06-.35-.19-.48c-.13-.13-.29-.19-.5-.19h-.61Zm0,2.42v3.73h1.05v-.02c.22-.01,.5-.19,.83-.54,.36-.37,.54-.82,.54-1.33s-.18-.94-.54-1.31c-.36-.36-.8-.54-1.31-.54h-.58Z"/>
        <path class="cls-1" d="M195.82,2.72l3.02,8.31h-1.14l-1.07-2.94h-2.2l-1.06,2.94h-1.15l3.02-8.31h.58Zm.42,4.29l-.71-1.95-.71,1.95h1.42Z"/>
        <path class="cls-1" d="M201.94,8.37h-.98v2.66h-1.07V2.72h2.36c.67,.09,1.23,.36,1.69,.82,.55,.55,.82,1.22,.82,1.99s-.28,1.45-.82,2c-.38,.38-.67,.6-.87,.64l1.84,2.84h-1.3l-1.66-2.66Zm-.98-4.57v3.49h.98c.48,0,.89-.17,1.23-.51,.34-.34,.51-.75,.51-1.24s-.17-.89-.51-1.23-.75-.51-1.23-.51h-.98Z"/>
        <path class="cls-1" d="M213.09,3.86c.83,.83,1.25,1.83,1.25,3.01s-.42,2.18-1.25,3.01c-.83,.83-1.83,1.25-3.01,1.25s-2.18-.41-3.01-1.25c-.83-.83-1.25-1.83-1.25-3.01s.41-2.18,1.25-3.01c.83-.83,1.83-1.25,3.01-1.25s2.18,.42,3.01,1.25Zm-3.01-.16c-.88,0-1.62,.31-2.24,.93s-.93,1.36-.93,2.24,.31,1.62,.93,2.24c.62,.62,1.36,.93,2.24,.93s1.62-.31,2.24-.93c.62-.62,.93-1.37,.93-2.24s-.31-1.62-.93-2.24c-.62-.62-1.36-.93-2.24-.93Z"/>
        <path class="cls-1" d="M220.52,7.59v3.44h-1.07V2.72h1.07v3.79h2.57V2.72h1.07V11.03h-1.07v-3.44h-2.57Z"/>
        <path class="cls-1" d="M232.85,3.86c.83,.83,1.25,1.83,1.25,3.01s-.42,2.18-1.25,3.01c-.83,.83-1.83,1.25-3.01,1.25s-2.18-.41-3.01-1.25c-.83-.83-1.25-1.83-1.25-3.01s.41-2.18,1.25-3.01c.83-.83,1.83-1.25,3.01-1.25s2.18,.42,3.01,1.25Zm-3.01-.16c-.88,0-1.62,.31-2.24,.93-.62,.62-.93,1.36-.93,2.24s.31,1.62,.93,2.24c.62,.62,1.36,.93,2.24,.93s1.62-.31,2.24-.93c.62-.62,.93-1.37,.93-2.24s-.31-1.62-.93-2.24c-.62-.62-1.36-.93-2.24-.93Z"/>
        <path class="cls-1" d="M237.64,6.76c-.59-.2-1.07-.48-1.43-.84-.36-.36-.55-.82-.55-1.36s.19-.98,.57-1.36c.38-.38,.84-.57,1.38-.57s.99,.19,1.37,.57c.21,.21,.39,.54,.54,.99l-.98,.38c-.12-.32-.23-.53-.32-.62-.17-.17-.37-.25-.61-.25s-.45,.08-.62,.25c-.17,.17-.25,.37-.25,.61s.08,.45,.25,.62c.19,.19,.45,.36,.79,.51,.65,.21,1.2,.54,1.66,1,.51,.5,.76,1.11,.76,1.83s-.25,1.33-.76,1.84c-.51,.51-1.12,.76-1.83,.76s-1.33-.25-1.83-.76c-.41-.4-.66-.96-.77-1.68l1.04-.38c.07,.61,.23,1.05,.48,1.3,.3,.3,.66,.45,1.07,.45s.78-.15,1.07-.45,.45-.66,.45-1.08-.15-.78-.45-1.07c-.29-.28-.63-.51-1.04-.68Z"/>
        <path class="cls-1" d="M242.32,8.37v2.66h-1.07V2.72h2.36c.67,.09,1.23,.36,1.69,.82,.55,.55,.82,1.22,.82,1.99s-.28,1.45-.82,2c-.55,.55-1.22,.83-2,.83h-.98Zm0-4.57v3.49h.98c.48,0,.89-.17,1.23-.51,.34-.34,.51-.75,.51-1.24s-.17-.89-.51-1.23c-.34-.34-.75-.51-1.23-.51h-.98Z"/>
        <path class="cls-1" d="M248.37,2.72V11.03h-1.07V2.72h1.07Z"/>
        <path class="cls-1" d="M252.54,3.8v7.23h-1.08V3.8h-1.94v-1.07h4.95v1.07h-1.94Z"/>
        <path class="cls-1" d="M258.22,2.72l3.02,8.31h-1.14l-1.07-2.94h-2.2l-1.06,2.94h-1.15l3.02-8.31h.58Zm.42,4.29l-.71-1.95-.71,1.95h1.42Z"/>
        <path class="cls-1" d="M262.28,11.03V2.72h1.07v7.23h2.97v1.08h-4.04Z"/>
        <path class="cls-1" d="M273.89,5.25c.82,0,1.51,.29,2.09,.87,.58,.58,.86,1.28,.86,2.09s-.29,1.51-.86,2.09c-.58,.58-1.27,.87-2.09,.87s-1.51-.29-2.09-.87c-.58-.58-.87-1.28-.87-2.09s.29-1.51,.87-2.09c.58-.58,1.27-.87,2.09-.87Zm-1.31,1.65c-.36,.36-.54,.8-.54,1.31s.18,.95,.54,1.31c.36,.36,.8,.54,1.31,.54s.95-.18,1.31-.54c.36-.36,.54-.8,.54-1.31s-.18-.94-.54-1.31c-.36-.36-.8-.55-1.31-.55s-.95,.18-1.31,.55Z"/>
        <path class="cls-1" d="M279.34,6.75v4.28h-1.08V6.75h-.48v-1.07h.48v-.96c.03-.44,.19-.82,.51-1.14,.32-.31,.7-.46,1.13-.46,.22,0,.54,.07,.98,.22l-.36,1.02c-.3-.13-.5-.19-.58-.19-.14,0-.29,.06-.42,.18-.11,.11-.18,.25-.18,.41v.92h.96v1.07h-.96Z"/>
        <path class="cls-1" d="M286.1,7.11v3.92h-1.07V2.72h1.07v2.62l1.96-2.62h1.36l-2.55,3.42,3.17,4.89h-1.3l-2.57-4.01-.07,.09Z"/>
        <path class="cls-1" d="M297.93,3.86c.83,.83,1.25,1.83,1.25,3.01s-.42,2.18-1.25,3.01c-.83,.83-1.83,1.25-3.01,1.25s-2.18-.41-3.01-1.25-1.25-1.83-1.25-3.01,.41-2.18,1.25-3.01c.83-.83,1.83-1.25,3.01-1.25s2.18,.42,3.01,1.25Zm-3.01-.16c-.88,0-1.62,.31-2.24,.93s-.93,1.36-.93,2.24,.31,1.62,.93,2.24c.62,.62,1.36,.93,2.24,.93s1.62-.31,2.24-.93c.62-.62,.93-1.37,.93-2.24s-.31-1.62-.93-2.24-1.36-.93-2.24-.93Z"/>
        <path class="cls-1" d="M302.67,8.37h-.98v2.66h-1.07V2.72h2.36c.67,.09,1.23,.36,1.69,.82,.55,.55,.82,1.22,.82,1.99s-.28,1.45-.82,2c-.38,.38-.67,.6-.87,.64l1.84,2.84h-1.3l-1.66-2.66Zm-.98-4.57v3.49h.98c.48,0,.89-.17,1.23-.51,.34-.34,.51-.75,.51-1.24s-.17-.89-.51-1.23c-.34-.34-.75-.51-1.23-.51h-.98Z"/>
        <path class="cls-1" d="M311.17,2.72v1.07h-3.4v2.54h3.4v1.07h-3.4v2.54h3.4v1.08h-4.48V2.72h4.48Z"/>
        <path class="cls-1" d="M315.69,2.72l3.02,8.31h-1.14l-1.07-2.94h-2.2l-1.06,2.94h-1.15l3.02-8.31h.58Zm.42,4.29l-.71-1.95-.71,1.95h1.42Z"/>
        <path class="cls-1" d="M319.75,2.72h.98l3.43,5.93V2.72h1.08V11.03h-.94l-3.47-6v6h-1.07V2.72Z"/>
        <path class="cls-1" d="M331.71,2.72l2.7,4.66,2.69-4.66h.98V11.03h-1.07V5.02l-2.59,4.49-2.6-4.49v6h-1.07V2.72h.98Z"/>
        <path class="cls-1" d="M344.36,2.72v1.07h-3.4v2.54h3.4v1.07h-3.4v2.54h3.4v1.08h-4.48V2.72h4.48Z"/>
        <path class="cls-1" d="M346.58,2.72c1.35,0,2.4,.39,3.16,1.15,.83,.83,1.24,1.84,1.24,3.01s-.41,2.18-1.24,3.01c-.75,.76-1.81,1.14-3.16,1.15h-.79V2.72h.79Zm.29,1.1v6.12c.86,0,1.56-.28,2.1-.82,.62-.62,.92-1.36,.92-2.24s-.31-1.62-.92-2.24c-.55-.55-1.25-.82-2.1-.82Z"/>
        <path class="cls-1" d="M353.45,2.72V11.03h-1.07V2.72h1.07Z"/>
        <path class="cls-1" d="M361.55,9.05l.81,.72c-.98,.9-2.02,1.34-3.12,1.34-1.17,0-2.17-.41-3-1.24-.83-.83-1.24-1.83-1.24-3s.41-2.17,1.24-3c.83-.83,1.83-1.25,3-1.25,1.1,0,2.14,.45,3.12,1.34l-.81,.73c-.74-.66-1.51-.99-2.32-.99-.87,0-1.61,.31-2.23,.92s-.93,1.36-.93,2.23,.31,1.62,.93,2.24,1.36,.92,2.23,.92c.8,0,1.57-.33,2.32-.99Z"/>
        <path class="cls-1" d="M364.83,2.72V11.03h-1.07V2.72h1.07Z"/>
        <path class="cls-1" d="M366.49,2.72h.98l3.43,5.93V2.72h1.08V11.03h-.94l-3.47-6v6h-1.07V2.72Z"/>
        <path class="cls-1" d="M378.02,2.72v1.07h-3.4v2.54h3.4v1.07h-3.4v2.54h3.4v1.08h-4.48V2.72h4.48Z"/>
      </g>
      <g>
        <path class="cls-2" d="M110.37,21.73v16.08h3.98V21.73h10.41v43.03c0,1.16-.31,2.03-.92,2.63-.61,.6-1.5,.89-2.65,.89h-17.61c-1.16,0-2.04-.3-2.65-.89-.61-.6-.92-1.47-.92-2.63V21.73h10.36Zm3.98,38.59v-14.39h-3.98v14.39h3.98Zm23.18-22.87h7.1v5.62c0,1.16-.37,1.99-1.1,2.5-.73,.51-1.71,.77-2.94,.77h-3.06v15.52c0,1.87-.64,3.45-1.91,4.72s-2.85,1.91-4.72,1.91h-3.73V21.58h10.36v15.88Z"/>
        <path class="cls-2" d="M163.61,60.43v-6.28h10.41v6.28h15.88v4.14c0,1.16-.37,2.07-1.12,2.76-.75,.68-1.72,1.02-2.91,1.02h-35.43c-1.16,0-2.12-.34-2.88-1.02-.77-.68-1.15-1.6-1.15-2.76v-4.14h17.2Zm23.53-22c0,.99-.23,1.68-.69,2.09-.46,.41-1.18,.61-2.17,.61h-25.12v3.57h28.99v5c0,.99-.25,1.71-.76,2.17-.51,.46-1.26,.69-2.25,.69h-33.34c-.99,0-1.73-.23-2.25-.69-.51-.46-.77-1.18-.77-2.17v-16.49h27.92v-3.52h-25.17c-.99,0-1.71-.21-2.17-.61-.46-.41-.69-1.11-.69-2.09v-5.26h38.44v16.69Z"/>
        <path class="cls-2" d="M202.21,22.65v-4.19h10.31v4.19h8.78v4.9c0,.99-.25,1.7-.74,2.15-.49,.44-1.23,.66-2.22,.66h-22.72c-.99,0-1.73-.22-2.22-.66-.49-.44-.74-1.16-.74-2.15v-4.9h9.55Zm-8.58,15.93c0-1.97,.57-3.63,1.71-4.98,1.14-1.34,2.9-2.02,5.28-2.02h13.38c2.38,0,4.13,.67,5.26,2.02,1.12,1.34,1.68,3,1.68,4.98v4.85c0,1.97-.56,3.64-1.68,5-1.12,1.36-2.88,2.04-5.26,2.04h-13.38c-2.38,0-4.14-.68-5.28-2.04-1.14-1.36-1.71-3.03-1.71-5v-4.85Zm5.92,29.92c-1.06,0-1.88-.28-2.48-.84-.6-.56-.89-1.35-.89-2.37v-13.53h10.41v8.78h26.24v4.75c0,1.02-.31,1.81-.92,2.37-.61,.56-1.45,.84-2.5,.84h-29.86Zm11.03-27.26c0-.58-.15-.93-.46-1.07-.31-.14-.73-.2-1.28-.2h-2.76c-.54,0-1.03,.07-1.46,.2-.43,.14-.64,.49-.64,1.07,0,.61,.21,1.01,.64,1.18,.43,.17,.91,.25,1.46,.25h2.76c.54,0,.97-.08,1.28-.25,.31-.17,.46-.56,.46-1.18Zm22.05-10.01h6.74v5.82c0,1.05-.31,1.82-.94,2.3-.63,.48-1.51,.72-2.63,.72h-3.16v11.28c0,1.06-.36,1.9-1.07,2.53-.72,.63-1.67,.94-2.86,.94h-6.43V21.58h10.36v9.65Z"/>
        <path class="cls-2" d="M281.03,61.3c0,2.38-.81,4.21-2.43,5.49-1.62,1.28-3.63,1.92-6.05,1.92h-21.75c-2.38,0-4.39-.64-6.02-1.92-1.63-1.28-2.45-3.11-2.45-5.49v-5.41c0-2.38,.82-4.21,2.45-5.49,1.63-1.28,3.64-1.91,6.02-1.91h21.75c2.42,0,4.43,.64,6.05,1.91,1.62,1.28,2.43,3.11,2.43,5.49v5.41Zm-28.28-39.61v4.8h4.59v-4.8h10.31v22.46c0,.99-.25,1.7-.74,2.14-.49,.44-1.23,.66-2.22,.66h-19.35c-.99,0-1.73-.22-2.22-.66-.49-.44-.74-1.16-.74-2.14V21.68h10.36Zm0,17.36h4.59v-4.59h-4.59v4.59Zm17.87,19.3c0-.54-.15-.99-.46-1.33s-1-.51-2.09-.51h-12.76c-1.06,0-1.75,.17-2.07,.51-.32,.34-.48,.78-.48,1.33v.36c0,.54,.16,.99,.48,1.33,.32,.34,1.01,.51,2.07,.51h12.76c1.09,0,1.79-.17,2.09-.51,.31-.34,.46-.78,.46-1.33v-.36Zm9.55-28.74h6.74v5.82c0,1.06-.31,1.82-.94,2.3-.63,.48-1.51,.71-2.63,.71h-3.16v5.41c0,1.06-.36,1.9-1.07,2.53-.72,.63-1.67,.94-2.86,.94h-6.43V21.58h10.36v8.02Z"/>
        <path class="cls-2" d="M301.14,21.68v4.8h4.59v-4.8h10.31v3.47h3.47v-3.57h10.36v22.31c0,1.06-.36,1.9-1.07,2.53-.72,.63-1.67,.94-2.86,.94h-6.43v-3.98h-3.47v.77c0,.99-.25,1.7-.74,2.14-.49,.44-1.23,.66-2.22,.66h-19.35c-.99,0-1.73-.22-2.22-.66-.49-.44-.74-1.16-.74-2.14V21.68h10.36Zm29.3,39.61c0,2.38-.81,4.21-2.43,5.49-1.62,1.28-3.63,1.92-6.05,1.92h-21.75c-2.38,0-4.39-.64-6.02-1.92-1.63-1.28-2.45-3.11-2.45-5.49v-5.41c0-2.38,.82-4.21,2.45-5.49,1.63-1.28,3.64-1.91,6.02-1.91h21.75c2.42,0,4.43,.64,6.05,1.91,1.62,1.28,2.43,3.11,2.43,5.49v5.41Zm-29.3-22.26h4.59v-4.59h-4.59v4.59Zm18.89,19.3c0-.54-.15-.99-.46-1.33-.31-.34-1-.51-2.09-.51h-12.76c-1.06,0-1.75,.17-2.07,.51-.32,.34-.49,.78-.49,1.33v.36c0,.54,.16,.99,.49,1.33,.32,.34,1.01,.51,2.07,.51h12.76c1.09,0,1.79-.17,2.09-.51,.31-.34,.46-.78,.46-1.33v-.36Zm-3.98-25.52v2.96h3.47v-2.96h-3.47Z"/>
        <path class="cls-2" d="M361.07,41.7c1.09,0,2.15-.07,3.19-.2s1.78-.29,2.22-.46v6.23c-.51,.17-1.29,.32-2.35,.46-1.06,.14-2.18,.21-3.37,.21h-5.41v3.16c0,.89-.25,1.55-.77,1.99-.51,.44-1.29,.66-2.35,.66h-7.25v-5.82h-4.9c-1.12,0-2.02-.29-2.68-.87-.66-.58-1-1.41-1-2.5v-2.86h24.66Zm-14.65-1.12c-3.06,0-5.33-.69-6.79-2.07-1.46-1.38-2.19-3.11-2.19-5.18v-5.41c0-2.11,.73-3.85,2.19-5.21,1.46-1.36,3.73-2.04,6.79-2.04h9.85c3.06,0,5.33,.68,6.79,2.04,1.46,1.36,2.19,3.1,2.19,5.21v5.41c0,2.07-.73,3.8-2.19,5.18-1.46,1.38-3.73,2.07-6.79,2.07h-9.85Zm-2.3,27.92c-1.06,0-1.88-.28-2.48-.84-.6-.56-.89-1.35-.89-2.37v-10.47h10.41v5.72h26.85v4.75c0,1.02-.31,1.81-.92,2.37-.61,.56-1.45,.84-2.5,.84h-30.48Zm8.63-35.38c.99,0,1.63-.18,1.94-.54,.31-.36,.46-.79,.46-1.3v-1.43c0-.51-.15-.94-.46-1.3-.31-.36-.95-.54-1.94-.54h-2.81c-.99,0-1.63,.18-1.94,.54-.31,.36-.46,.79-.46,1.3v1.43c0,.51,.15,.94,.46,1.3,.31,.36,.95,.54,1.94,.54h2.81Zm25.07,20.32c0,1.05-.36,1.9-1.07,2.53-.72,.63-1.67,.94-2.86,.94h-6.28v-2.15h-7.05c-.85,0-1.55-.26-2.09-.79-.54-.53-.82-1.22-.82-2.07v-3.06h9.95V21.53h10.21v31.91Z"/>
      </g>
      <g>
        <path class="cls-2" d="M85.19,37.97v4.24c0,.48-.2,.9-.61,1.25-.4,.35-.86,.52-1.38,.52h-2.93v-6.01h-6.55c-.52,0-.91-.12-1.16-.35-.26-.23-.39-.61-.39-1.13v-2.25h20.81v2.25c0,.52-.13,.89-.39,1.13-.26,.24-.65,.35-1.16,.35h-6.23Zm6.6-6.33c0,.47-.12,.81-.35,1.02-.23,.21-.59,.32-1.05,.32h-15.59c-.47,0-.82-.11-1.05-.32-.24-.21-.35-.55-.35-1.02v-9.94h4.95v2.18h8.51v-2.18h4.95v9.94Zm-4.95-2.38v-1.67h-8.51v1.67h8.51Z"/>
        <path class="cls-2" d="M79.1,56.44c-.58,.92-1.55,1.66-2.91,2.22-1.36,.56-2.63,.85-3.81,.86v-3.98c1.02-.11,1.97-.58,2.84-1.41,.76-.71,1.2-1.99,1.31-3.83h-2.79c-.47,0-.8-.11-.99-.32-.19-.21-.29-.55-.29-1.02v-2.45h4.1v-2.06h5.02v2.06h3.88v2.45c0,.47-.09,.81-.28,1.02-.19,.21-.51,.32-.98,.32h-2.59c.1,1.84,.49,3.12,1.19,3.83,.82,.82,1.75,1.29,2.79,1.41v3.98c-1.18-.02-2.43-.3-3.73-.86-1.31-.56-2.22-1.3-2.74-2.22Zm-3.18,11.81c-.5,0-.89-.13-1.18-.4-.28-.27-.42-.64-.42-1.13v-6.45h4.95v4.19h12.46v2.25c0,.49-.14,.86-.44,1.13-.29,.27-.69,.4-1.19,.4h-14.18Zm15.74-8.12c0,.5-.17,.9-.51,1.2-.34,.3-.79,.45-1.36,.45h-3.05v-7.47h-1.65c-.4,0-.74-.12-.99-.38-.26-.25-.39-.58-.39-.98v-2.01h3.03v-4.97h4.92v14.16Z"/>
      </g>
    </g>
  </g>
</svg>