<svg xmlns="http://www.w3.org/2000/svg" viewBox="0 0 769.54 117.85"><defs><style>.cls-1{opacity:0.05;}.cls-2{fill:#404040;}</style></defs><g id="Layer_2" data-name="Layer 2"><g id="Layer_1-2" data-name="Layer 1"><g class="cls-1"><path class="cls-2" d="M159.73,106a4.86,4.86,0,0,1-.74,2.66,6.29,6.29,0,0,1-2,2,10.54,10.54,0,0,1-2.91,1.2,13.36,13.36,0,0,1-3.37.42,12.11,12.11,0,0,1-3.2-.42,10,10,0,0,1-2.78-1.2,6.35,6.35,0,0,1-2-2,4.78,4.78,0,0,1-.75-2.66V89.36H114.59a2,2,0,0,1-1.79-1,4.36,4.36,0,0,1-.62-2.33,4.49,4.49,0,0,1,.62-2.25,2,2,0,0,1,1.79-1.08h72.5a2,2,0,0,1,1.78,1.08A4.4,4.4,0,0,1,189.5,86a4.28,4.28,0,0,1-.63,2.33,2,2,0,0,1-1.78,1H159.73ZM183,70.82a6.42,6.42,0,0,1-2,2,9.91,9.91,0,0,1-2.87,1.2,13.08,13.08,0,0,1-3.29.42h-39.4q-9.06,0-13.35-3.78t-4.28-10.85V42.56a4.78,4.78,0,0,1,.75-2.66,6.35,6.35,0,0,1,2-2,10.25,10.25,0,0,1,2.82-1.2,12.75,12.75,0,0,1,6.49,0,10.25,10.25,0,0,1,2.82,1.2,6.46,6.46,0,0,1,2,2,4.78,4.78,0,0,1,.75,2.66v7.06h30.68V42.56a4.78,4.78,0,0,1,.74-2.66,6.46,6.46,0,0,1,2-2,10.39,10.39,0,0,1,2.78-1.2,12.16,12.16,0,0,1,3.2-.42,13.08,13.08,0,0,1,3.29.42,10.2,10.2,0,0,1,2.87,1.2,6.42,6.42,0,0,1,2,2,4.78,4.78,0,0,1,.75,2.66V68.08A4.93,4.93,0,0,1,183,70.82Zm-16.87-3.07V56.28H135.46V67.75Z"/><path class="cls-2" d="M229.08,51.37a30.16,30.16,0,0,1-1,8.15,62.15,62.15,0,0,1,9.9,2.24,18.42,18.42,0,0,1,5.57,2.79A6.93,6.93,0,0,1,246,67.87a13.05,13.05,0,0,1,.54,3.79,9.39,9.39,0,0,1-.75,3.74,9.64,9.64,0,0,1-2.08,3.07,9.49,9.49,0,0,1-3.11,2.08,9.92,9.92,0,0,1-3.87.75,6,6,0,0,1-3.28-.87A7,7,0,0,1,231,77.35a30.56,30.56,0,0,1-1.92-6q-.87-3.8-1.7-9.69a23.72,23.72,0,0,1-4.91,8.11,26.56,26.56,0,0,1-7.27,5.48,34.39,34.39,0,0,1-8.9,3.12,47.28,47.28,0,0,1-9.77,1,2,2,0,0,1-1.78-1,4.34,4.34,0,0,1-.63-2.29,4.4,4.4,0,0,1,.63-2.24,2,2,0,0,1,1.78-1.08,18.13,18.13,0,0,0,7.07-1.21,9.82,9.82,0,0,0,4.53-3.86,17.74,17.74,0,0,0,2.37-6.86,66.14,66.14,0,0,0,.67-10.27V49.21H198.49a2,2,0,0,1-1.79-1,4.25,4.25,0,0,1-.62-2.33,4.38,4.38,0,0,1,.62-2.24,2,2,0,0,1,1.79-1.08h12.72V38.07a4.86,4.86,0,0,1,.74-2.66,6.46,6.46,0,0,1,2-2,10.19,10.19,0,0,1,2.83-1.2,12.52,12.52,0,0,1,3.24-.42,13.41,13.41,0,0,1,3.37.42,10.13,10.13,0,0,1,2.86,1.2,6.83,6.83,0,0,1,2,2,4.58,4.58,0,0,1,.79,2.66v4.49h13.8a2,2,0,0,1,1.79,1.08,4.38,4.38,0,0,1,.62,2.24,4.25,4.25,0,0,1-.62,2.33,2,2,0,0,1-1.79,1h-13.8Zm39.16,53a2,2,0,0,1,1.79,1.08,4.48,4.48,0,0,1,.62,2.24A4.34,4.34,0,0,1,270,110a2,2,0,0,1-1.79,1H222q-9.57,0-14-3.91t-4.41-11.39V89.86a5.42,5.42,0,0,1,.79-2.91,6.31,6.31,0,0,1,2.08-2,10.55,10.55,0,0,1,2.91-1.21,13.35,13.35,0,0,1,3.37-.41,13.9,13.9,0,0,1,3.41.41,10.56,10.56,0,0,1,3,1.21,6.31,6.31,0,0,1,2.08,2,5.42,5.42,0,0,1,.79,2.91v14.47Zm-.33-16.46a6.43,6.43,0,0,1-2,1.95A9.93,9.93,0,0,1,263,91a13.8,13.8,0,0,1-3.36.41,12.47,12.47,0,0,1-3.2-.41,10,10,0,0,1-2.79-1.21,6.29,6.29,0,0,1-2-1.95,5,5,0,0,1-.75-2.75V60.77h-8.23a2,2,0,0,1-1.79-1,4.27,4.27,0,0,1-.62-2.33,4.42,4.42,0,0,1,.62-2.25,2,2,0,0,1,1.79-1.08H251V40.89a5,5,0,0,1,.75-2.74,6.29,6.29,0,0,1,2-1.95A9.15,9.15,0,0,1,256.48,35a13.42,13.42,0,0,1,3.2-.37A14.85,14.85,0,0,1,263,35a9.11,9.11,0,0,1,2.87,1.17,6.43,6.43,0,0,1,2,1.95,5,5,0,0,1,.75,2.74V85.12A5,5,0,0,1,267.91,87.87Z"/><path class="cls-2" d="M285.92,103.08q-4.2-3.73-4.2-10.72V42.48a4.84,4.84,0,0,1,.75-2.67,6.14,6.14,0,0,1,1.95-1.91,10.28,10.28,0,0,1,2.74-1.16,12.25,12.25,0,0,1,6.36,0,10.77,10.77,0,0,1,2.83,1.16,6.1,6.1,0,0,1,2,1.91,4.92,4.92,0,0,1,.74,2.67V65.42h11.23v-23a4.6,4.6,0,0,1,.75-2.62A6.34,6.34,0,0,1,313,37.9a10.28,10.28,0,0,1,2.74-1.16,11.84,11.84,0,0,1,3.12-.42,12.52,12.52,0,0,1,3.24.42,10.22,10.22,0,0,1,2.79,1.16,6.34,6.34,0,0,1,1.95,1.87,4.6,4.6,0,0,1,.75,2.62v58.28a4.78,4.78,0,0,1-.75,2.66,6.13,6.13,0,0,1-1.95,1.91,10.23,10.23,0,0,1-2.79,1.17,13,13,0,0,1-3.24.41H299.09Q290.12,106.82,285.92,103.08Zm24.4-2.91V72.07H299.09v28.1Zm47.8-34.33a2,2,0,0,1,1.79,1.08,4.38,4.38,0,0,1,.62,2.24,4.27,4.27,0,0,1-.62,2.33,2,2,0,0,1-1.79,1H351v32.59a4.93,4.93,0,0,1-.75,2.74,6.32,6.32,0,0,1-2,2,10.2,10.2,0,0,1-2.87,1.2,13.36,13.36,0,0,1-3.37.42,12.11,12.11,0,0,1-3.2-.42,10.39,10.39,0,0,1-2.78-1.2,6.46,6.46,0,0,1-2-2,4.93,4.93,0,0,1-.75-2.74V40.89a5,5,0,0,1,.75-2.74,6.43,6.43,0,0,1,2-1.95A9.2,9.2,0,0,1,338.79,35a13.48,13.48,0,0,1,3.2-.37,14.88,14.88,0,0,1,3.37.37,9.11,9.11,0,0,1,2.87,1.17,6.29,6.29,0,0,1,2,1.95,5,5,0,0,1,.75,2.74v25Z"/><path class="cls-2" d="M362.25,104.91a4.25,4.25,0,0,1-.63-2.33,4.4,4.4,0,0,1,.63-2.24A2,2,0,0,1,364,99.26h27.35V88.12a4.78,4.78,0,0,1,.75-2.66,6.42,6.42,0,0,1,2-2,10.32,10.32,0,0,1,2.79-1.2,12.05,12.05,0,0,1,3.2-.42,13.33,13.33,0,0,1,3.36.42,10.59,10.59,0,0,1,2.91,1.2,6.29,6.29,0,0,1,2,2,4.78,4.78,0,0,1,.75,2.66V99.26h27.35a2,2,0,0,1,1.79,1.08,4.48,4.48,0,0,1,.62,2.24,4.34,4.34,0,0,1-.62,2.33,2,2,0,0,1-1.79,1H364A2,2,0,0,1,362.25,104.91Zm9.31-28.27q-4.29-3.57-4.28-10.64V61.26A4.83,4.83,0,0,1,368,58.6a6.39,6.39,0,0,1,2-2,10,10,0,0,1,2.83-1.21,13,13,0,0,1,3.24-.41h39.49V43.39H369.27a2,2,0,0,1-1.78-1,4.25,4.25,0,0,1-.63-2.33,4.4,4.4,0,0,1,.63-2.24,2,2,0,0,1,1.78-1.08h55a13.46,13.46,0,0,1,3.28.41,9.81,9.81,0,0,1,2.87,1.21,6.54,6.54,0,0,1,2,2,4.83,4.83,0,0,1,.75,2.66V55.36a5,5,0,0,1-.75,2.75,6.54,6.54,0,0,1-2,2,9.54,9.54,0,0,1-2.87,1.2,13,13,0,0,1-3.28.42H384.9V73.57h46.73a2,2,0,0,1,1.78,1.08,4.4,4.4,0,0,1,.63,2.24,4.25,4.25,0,0,1-.63,2.33,2,2,0,0,1-1.78,1H384.9Q375.84,80.22,371.56,76.64Z"/><path class="cls-2" d="M448.72,55.24a17.32,17.32,0,0,1,5.37-6h-7.4a2,2,0,0,1-1.79-1,4.25,4.25,0,0,1-.62-2.33,4.38,4.38,0,0,1,.62-2.24,2,2,0,0,1,1.79-1.08h14.38V38.07a4.78,4.78,0,0,1,.75-2.66,6.42,6.42,0,0,1,2-2,10.32,10.32,0,0,1,2.83-1.2,12.26,12.26,0,0,1,3.16-.42,13.91,13.91,0,0,1,3.41.42,10.1,10.1,0,0,1,2.91,1.2,6.79,6.79,0,0,1,2,2,4.58,4.58,0,0,1,.79,2.66v4.49h14.39a2,2,0,0,1,1.79,1.08,4.48,4.48,0,0,1,.62,2.24,4.34,4.34,0,0,1-.62,2.33,2,2,0,0,1-1.79,1h-7.4a17.61,17.61,0,0,1,5.4,6A16.15,16.15,0,0,1,491.58,70a17.24,17.24,0,0,1-4.7,5.78,22.8,22.8,0,0,1-7.31,3.87,33.42,33.42,0,0,1-19.21,0,22.28,22.28,0,0,1-7.27-3.87A17.11,17.11,0,0,1,448.47,70a16.48,16.48,0,0,1,.25-14.75Zm8.78,51.83q-4.41-3.9-4.41-11.39V89.86a5.33,5.33,0,0,1,.79-2.91,6.22,6.22,0,0,1,2.08-2,10.3,10.3,0,0,1,2.91-1.21,13.33,13.33,0,0,1,3.36-.41,13.84,13.84,0,0,1,3.41.41,10.44,10.44,0,0,1,2.95,1.21,6.31,6.31,0,0,1,2.08,2,5.33,5.33,0,0,1,.79,2.91v14.47h45.4a2,2,0,0,1,1.78,1.08,4.4,4.4,0,0,1,.63,2.24,4.25,4.25,0,0,1-.63,2.33,2,2,0,0,1-1.78,1h-45.4Q461.91,111,457.5,107.07Zm6.56-39.9a16.53,16.53,0,0,0,1.21,4,7.52,7.52,0,0,0,2,2.7,4.14,4.14,0,0,0,2.71,1,4.2,4.2,0,0,0,2.78-1,8.11,8.11,0,0,0,2-2.7,15.29,15.29,0,0,0,1.24-4,29.85,29.85,0,0,0,0-10,15.18,15.18,0,0,0-1.24-4,8,8,0,0,0-2-2.7,4.2,4.2,0,0,0-2.78-1,4.14,4.14,0,0,0-2.71,1,7.43,7.43,0,0,0-2,2.7,16.39,16.39,0,0,0-1.21,4,30.57,30.57,0,0,0,0,10Zm60.36-8.82a2,2,0,0,1,1.79,1.08,4.52,4.52,0,0,1,.62,2.25,4.36,4.36,0,0,1-.62,2.33,2,2,0,0,1-1.79,1h-7.15V85.12a5,5,0,0,1-.75,2.75,6.39,6.39,0,0,1-2,1.95A9.93,9.93,0,0,1,511.66,91a13.82,13.82,0,0,1-3.37.41,12.53,12.53,0,0,1-3.2-.41,10.1,10.1,0,0,1-2.78-1.21,6.32,6.32,0,0,1-2-1.95,5,5,0,0,1-.75-2.75V40.89a5,5,0,0,1,.75-2.74,6.32,6.32,0,0,1,2-1.95A9.2,9.2,0,0,1,505.09,35a13.48,13.48,0,0,1,3.2-.37,14.88,14.88,0,0,1,3.37.37,9.11,9.11,0,0,1,2.87,1.17,6.39,6.39,0,0,1,2,1.95,5,5,0,0,1,.75,2.74V58.35Z"/><path class="cls-2" d="M535.36,69.87c-2.79-2.47-4.2-6-4.2-10.68V41.73a4.78,4.78,0,0,1,.75-2.66,6.54,6.54,0,0,1,2-2,9.45,9.45,0,0,1,2.74-1.2,12.25,12.25,0,0,1,6.36,0,10,10,0,0,1,2.83,1.2,6.42,6.42,0,0,1,2,2,4.78,4.78,0,0,1,.75,2.66v7.06h11.23V41.73a4.78,4.78,0,0,1,.74-2.66,6.54,6.54,0,0,1,2-2,9.45,9.45,0,0,1,2.74-1.2,11.79,11.79,0,0,1,3.12-.42,12.52,12.52,0,0,1,3.24.42,9.35,9.35,0,0,1,2.78,1.2,6.54,6.54,0,0,1,2,2,4.78,4.78,0,0,1,.75,2.66V67.42a4.83,4.83,0,0,1-.75,2.66,6.17,6.17,0,0,1-2,1.91,9.85,9.85,0,0,1-2.78,1.16,12.52,12.52,0,0,1-3.24.42H548.54Q539.55,73.57,535.36,69.87Zm1.79,18.83a16.23,16.23,0,0,1,5.9-5.36,35.53,35.53,0,0,1,10.23-3.62,84.13,84.13,0,0,1,29.8,0,36.83,36.83,0,0,1,10.36,3.62,16.42,16.42,0,0,1,6,5.36,12.26,12.26,0,0,1,0,13.3,16.42,16.42,0,0,1-6,5.36,36,36,0,0,1-10.36,3.58,75,75,0,0,1-14.92,1.29,74.49,74.49,0,0,1-14.88-1.29,34.69,34.69,0,0,1-10.23-3.58,16.23,16.23,0,0,1-5.9-5.36,12.53,12.53,0,0,1,0-13.3Zm22.62-21.78V55.44H548.54V66.92ZM554,99.51a10.8,10.8,0,0,0,3,3.36,14.48,14.48,0,0,0,4.74,2.25,22.91,22.91,0,0,0,6.28.79,24.58,24.58,0,0,0,6.48-.79,15.47,15.47,0,0,0,5-2.25,10.42,10.42,0,0,0,3.12-3.36,8.55,8.55,0,0,0,0-8.32,10.52,10.52,0,0,0-3.12-3.36,15.47,15.47,0,0,0-5-2.25,25,25,0,0,0-6.48-.79,23.3,23.3,0,0,0-6.28.79,14.48,14.48,0,0,0-4.74,2.25,10.91,10.91,0,0,0-3,3.36,8.55,8.55,0,0,0,0,8.32Zm53.54-47.39a2,2,0,0,1,1.79,1.08,4.48,4.48,0,0,1,.62,2.24,4.34,4.34,0,0,1-.62,2.33,2,2,0,0,1-1.79,1h-7.15V71.41a5,5,0,0,1-.75,2.74,6.29,6.29,0,0,1-2,1.95,9.93,9.93,0,0,1-2.87,1.21,13.41,13.41,0,0,1-3.37.42,12.05,12.05,0,0,1-3.2-.42,10,10,0,0,1-2.78-1.21,6.22,6.22,0,0,1-2-1.95,5,5,0,0,1-.75-2.74V40.89a5,5,0,0,1,.75-2.74,6.32,6.32,0,0,1,2-1.95A9.09,9.09,0,0,1,588.24,35a13.42,13.42,0,0,1,3.2-.37,14.94,14.94,0,0,1,3.37.37,9.11,9.11,0,0,1,2.87,1.17,6.39,6.39,0,0,1,2,1.95,5,5,0,0,1,.75,2.74V52.12Z"/><path class="cls-2" d="M666.69,44.64V40.89a5,5,0,0,1,.75-2.74,6.39,6.39,0,0,1,2-1.95A9.26,9.26,0,0,1,672.22,35a13.42,13.42,0,0,1,3.2-.37,14.94,14.94,0,0,1,3.37.37,9.21,9.21,0,0,1,2.87,1.17,6.39,6.39,0,0,1,2,1.95,5,5,0,0,1,.75,2.74V71.41a5,5,0,0,1-.75,2.74,6.29,6.29,0,0,1-2,1.95,10,10,0,0,1-2.87,1.21,13.41,13.41,0,0,1-3.37.42,12.05,12.05,0,0,1-3.2-.42,10.16,10.16,0,0,1-2.79-1.21,6.29,6.29,0,0,1-2-1.95,5,5,0,0,1-.75-2.74V64.59H660.2v2.83a4.82,4.82,0,0,1-.74,2.66,6.17,6.17,0,0,1-2,1.91,9.85,9.85,0,0,1-2.78,1.16,12.63,12.63,0,0,1-3.24.42H631.69q-9,0-13.18-3.7t-4.2-10.68V41.73a4.78,4.78,0,0,1,.75-2.66,6.62,6.62,0,0,1,2-2,9.52,9.52,0,0,1,2.75-1.2,12.05,12.05,0,0,1,3.2-.42,12.26,12.26,0,0,1,3.16.42,10,10,0,0,1,2.82,1.2,6.35,6.35,0,0,1,2,2,4.78,4.78,0,0,1,.75,2.66v7.06h11.22V41.73a4.78,4.78,0,0,1,.75-2.66,6.54,6.54,0,0,1,2-2,9.34,9.34,0,0,1,2.74-1.2,11.73,11.73,0,0,1,3.12-.42,12.63,12.63,0,0,1,3.24.42,9.35,9.35,0,0,1,2.78,1.2,6.54,6.54,0,0,1,2,2,4.78,4.78,0,0,1,.74,2.66v2.91ZM620.34,88.7a16.48,16.48,0,0,1,6-5.36,36,36,0,0,1,10.35-3.62,73.73,73.73,0,0,1,15-1.33,74.5,74.5,0,0,1,15.1,1.33,37.43,37.43,0,0,1,10.47,3.62,16.76,16.76,0,0,1,6.11,5.36,12.06,12.06,0,0,1,0,13.3,16.76,16.76,0,0,1-6.11,5.36,36.54,36.54,0,0,1-10.47,3.58,77,77,0,0,1-15.1,1.29,76.2,76.2,0,0,1-15-1.29,35.14,35.14,0,0,1-10.35-3.58,16.48,16.48,0,0,1-6-5.36,12.31,12.31,0,0,1,0-13.3Zm22.57-21.78V55.44H631.69V66.92Zm-5.73,32.59a10.5,10.5,0,0,0,3.11,3.36,15.54,15.54,0,0,0,4.91,2.25,24.12,24.12,0,0,0,6.44.79,25.83,25.83,0,0,0,6.7-.79,16,16,0,0,0,5-2.25,10.67,10.67,0,0,0,3.19-3.36,8.22,8.22,0,0,0,0-8.32,10.78,10.78,0,0,0-3.19-3.36,16,16,0,0,0-5-2.25,26.26,26.26,0,0,0-6.7-.79,24.53,24.53,0,0,0-6.44.79,15.54,15.54,0,0,0-4.91,2.25,10.6,10.6,0,0,0-3.11,3.36,8.55,8.55,0,0,0,0,8.32Zm29.51-41.57V51.29H660.2v6.65Z"/><path class="cls-2" d="M730.13,83.13a4.8,4.8,0,0,1-.74,2.66,6.16,6.16,0,0,1-2,1.95A10.55,10.55,0,0,1,724.44,89a13.35,13.35,0,0,1-3.37.41,12.1,12.1,0,0,1-3.2-.41,10.1,10.1,0,0,1-2.78-1.21,6.22,6.22,0,0,1-2-1.95,4.81,4.81,0,0,1-.75-2.66V76.06H697.05a2,2,0,0,1-1.79-1,4.24,4.24,0,0,1-.63-2.32,4.4,4.4,0,0,1,.63-2.25,2,2,0,0,1,1.79-1.08h48.3a2,2,0,0,1,1.79,1.08,4.49,4.49,0,0,1,.62,2.25,4.32,4.32,0,0,1-.62,2.32,2,2,0,0,1-1.79,1H730.13ZM697.3,44a14,14,0,0,1,4.57-5.07,24.35,24.35,0,0,1,7.65-3.41,41,41,0,0,1,10.72-1.25,42,42,0,0,1,10.81,1.25,24.87,24.87,0,0,1,7.77,3.41A14.41,14.41,0,0,1,743.48,44,13.22,13.22,0,0,1,745,50.21a13,13,0,0,1-1.54,6.19,14.56,14.56,0,0,1-4.66,5,24.87,24.87,0,0,1-7.77,3.41,42,42,0,0,1-10.81,1.25,41,41,0,0,1-10.72-1.25,24.35,24.35,0,0,1-7.65-3.41,14.17,14.17,0,0,1-4.57-5,13.17,13.17,0,0,1-1.5-6.19A13.42,13.42,0,0,1,697.3,44Zm69.83,60.36a2,2,0,0,1,1.79,1.08,4.48,4.48,0,0,1,.62,2.24,4.34,4.34,0,0,1-.62,2.33,2,2,0,0,1-1.79,1H719.41q-9.64,0-14.09-3.16t-4.45-9.64V94.94a5.29,5.29,0,0,1,.79-2.91A6.66,6.66,0,0,1,703.74,90a9.69,9.69,0,0,1,3-1.25,13.85,13.85,0,0,1,3.41-.42,14.41,14.41,0,0,1,3.45.42,9.61,9.61,0,0,1,3,1.25A6.66,6.66,0,0,1,718.62,92a5.29,5.29,0,0,1,.79,2.91v9.39ZM714.88,56.86a5.85,5.85,0,0,0,5.36,2.74,6.45,6.45,0,0,0,5.57-2.78,9.17,9.17,0,0,0,1.37-3,13.63,13.63,0,0,0,.46-3.61,12,12,0,0,0-1.79-6.74,6.2,6.2,0,0,0-5.61-2.74,5.83,5.83,0,0,0-5.4,2.74,12.78,12.78,0,0,0-1.66,6.74A12.34,12.34,0,0,0,714.88,56.86ZM766.8,92.44a6.22,6.22,0,0,1-2,2,9.81,9.81,0,0,1-2.87,1.21,13.33,13.33,0,0,1-3.36.42,12.05,12.05,0,0,1-3.2-.42,10,10,0,0,1-2.79-1.21,6.29,6.29,0,0,1-2-2,5,5,0,0,1-.75-2.74v-2H738.7a2,2,0,0,1-1.79-1,4.24,4.24,0,0,1-.62-2.32,4.39,4.39,0,0,1,.62-2.25,2,2,0,0,1,1.79-1.08h11.14V40.89a5,5,0,0,1,.75-2.74,6.39,6.39,0,0,1,2-1.95A9.15,9.15,0,0,1,755.37,35a13.42,13.42,0,0,1,3.2-.37,14.85,14.85,0,0,1,3.36.37,9,9,0,0,1,2.87,1.17,6.32,6.32,0,0,1,2,1.95,5,5,0,0,1,.75,2.74V89.7A5,5,0,0,1,766.8,92.44Z"/><path class="cls-2" d="M96.42,21.43A42.86,42.86,0,0,0,53.57,64.28V85.71a21.43,21.43,0,1,0,42.85,0Z"/><path class="cls-2" d="M0,75a42.85,42.85,0,0,0,42.86,42.85V21.43A21.43,21.43,0,0,0,0,21.43Z"/><path class="cls-2" d="M451.5,14.93q0,3.81-5.21,3.81h-2.18a.83.83,0,0,1-.44-.07.87.87,0,0,1-.06-.44V5.91a.87.87,0,0,1,.06-.44s.19-.07.44-.07h2.7c2.85,0,4.27,1.1,4.27,3.28a2.81,2.81,0,0,1-2.38,3.05,4.18,4.18,0,0,1,2.08,1.2A2.87,2.87,0,0,1,451.5,14.93Zm-1.34.08a2.23,2.23,0,0,0-1-2,5.73,5.73,0,0,0-3.08-.64h-1.17V17.6h1.39C448.88,17.6,450.16,16.73,450.16,15Zm-.41-6.27q0-2.22-2.94-2.22H445v4.7h1.5a3.88,3.88,0,0,0,2.46-.65A2.18,2.18,0,0,0,449.75,8.74Z"/><path class="cls-2" d="M465.49,18.48c.06.17,0,.26-.16.26h-.86a.53.53,0,0,1-.19,0c-.06,0-.11-.1-.16-.22l-1.33-3.31H456l-.67,1.66c-.22.54-.43,1.09-.65,1.65-.05.12-.1.2-.15.22a.53.53,0,0,1-.19,0h-.85c-.17,0-.22-.09-.16-.26l5.3-12.9a.32.32,0,0,1,.32-.21h1.1a.31.31,0,0,1,.32.21ZM462.36,14c-.5-1.25-1-2.49-1.45-3.71s-1-2.45-1.45-3.7c-.51,1.25-1,2.48-1.49,3.7s-1,2.46-1.48,3.71Z"/><path class="cls-2" d="M476.52,18.48a.25.25,0,0,1,0,.17.14.14,0,0,1-.15.09h-.93a.42.42,0,0,1-.4-.26q-.81-1.69-1.35-2.76l-.85-1.7-.57-1.14a4.6,4.6,0,0,1-.77.11l-.89,0H469.1v5.46a.23.23,0,0,1-.25.26H468a.23.23,0,0,1-.25-.26V5.94c0-.13,0-.23,0-.3a.3.3,0,0,1,.06-.16.27.27,0,0,1,.17-.07h3.71a5.22,5.22,0,0,1,1.77.28,3.35,3.35,0,0,1,1.24.79,3,3,0,0,1,.74,1.22,5.06,5.06,0,0,1,.25,1.6,2.9,2.9,0,0,1-.19,1,3.36,3.36,0,0,1-.52.9,4,4,0,0,1-.74.75,4.92,4.92,0,0,1-.88.55Zm-2.15-9.19A4,4,0,0,0,474.2,8a1.75,1.75,0,0,0-.57-.87,2.54,2.54,0,0,0-1.06-.48A8.06,8.06,0,0,0,471,6.52H469.1v5.37H471a4.92,4.92,0,0,0,1.36-.18,3.23,3.23,0,0,0,1.07-.52,2.47,2.47,0,0,0,.7-.82A2.26,2.26,0,0,0,474.37,9.29Z"/><path class="cls-2" d="M490.16,12.07a8,8,0,0,1-1.48,5A5.37,5.37,0,0,1,484.27,19a5.43,5.43,0,0,1-4.44-1.94,7.86,7.86,0,0,1-1.47-5,9.39,9.39,0,0,1,.36-2.7,7.16,7.16,0,0,1,1-2.15,5.66,5.66,0,0,1,2-1.54,5.89,5.89,0,0,1,2.55-.55,5.78,5.78,0,0,1,2.54.54,5.43,5.43,0,0,1,1.94,1.57,7,7,0,0,1,1.06,2.17A8.92,8.92,0,0,1,490.16,12.07Zm-1.32,0a7.43,7.43,0,0,0-.29-2.14,6.55,6.55,0,0,0-.81-1.82,4.4,4.4,0,0,0-1.5-1.36,4.32,4.32,0,0,0-4,0,4.34,4.34,0,0,0-1.51,1.36A6.55,6.55,0,0,0,480,9.93a7.79,7.79,0,0,0-.29,2.14,7.92,7.92,0,0,0,.29,2.15,6.61,6.61,0,0,0,.81,1.83,4.67,4.67,0,0,0,1.53,1.35,4,4,0,0,0,2,.49,4,4,0,0,0,2-.48,4.5,4.5,0,0,0,1.5-1.36,6.61,6.61,0,0,0,.81-1.83A7.55,7.55,0,0,0,488.84,12.07Z"/><path class="cls-2" d="M507.67,18.48a.23.23,0,0,1-.26.26h-.8a.23.23,0,0,1-.26-.26V12.41h-6.83v6.07c0,.17-.08.26-.25.26h-.81c-.17,0-.25-.09-.25-.26V5.62a.22.22,0,0,1,.25-.25h.81a.22.22,0,0,1,.25.25v5.66h6.83V5.62c0-.17.09-.25.26-.25h.8c.17,0,.26.08.26.25Z"/><path class="cls-2" d="M522.48,12.07a8,8,0,0,1-1.48,5,6,6,0,0,1-8.85,0,7.86,7.86,0,0,1-1.47-5,9.39,9.39,0,0,1,.36-2.7,6.93,6.93,0,0,1,1-2.15,5.66,5.66,0,0,1,2-1.54,6.21,6.21,0,0,1,5.09,0,5.52,5.52,0,0,1,1.94,1.57,7.18,7.18,0,0,1,1.06,2.17A8.92,8.92,0,0,1,522.48,12.07Zm-1.32,0a7.43,7.43,0,0,0-.29-2.14,6.55,6.55,0,0,0-.81-1.82,4.4,4.4,0,0,0-1.5-1.36,4.32,4.32,0,0,0-4,0,4.34,4.34,0,0,0-1.51,1.36,6.55,6.55,0,0,0-.81,1.82,7.79,7.79,0,0,0-.29,2.14,7.92,7.92,0,0,0,.29,2.15,6.61,6.61,0,0,0,.81,1.83,4.67,4.67,0,0,0,1.53,1.35,4,4,0,0,0,2,.49,4,4,0,0,0,2-.48,4.5,4.5,0,0,0,1.5-1.36,6.61,6.61,0,0,0,.81-1.83A7.55,7.55,0,0,0,521.16,12.07Z"/><path class="cls-2" d="M525.18,18.56c-.19-.07-.27-.17-.23-.33l.07-.83a.35.35,0,0,1,.11-.2.17.17,0,0,1,.19,0,5.15,5.15,0,0,0,1.27.5,6.52,6.52,0,0,0,1.47.15,3.16,3.16,0,0,0,2.15-.72,2.54,2.54,0,0,0,.84-2,1.7,1.7,0,0,0-.4-1,4.48,4.48,0,0,0-1.13-1c-.42-.27-.89-.54-1.42-.83a13.72,13.72,0,0,1-1.51-.95,5.12,5.12,0,0,1-1.21-1.15,2.36,2.36,0,0,1-.49-1.49,3.13,3.13,0,0,1,.36-1.52,3.3,3.3,0,0,1,1-1.1,4.48,4.48,0,0,1,1.37-.67,5.38,5.38,0,0,1,1.59-.24,9,9,0,0,1,1.24.08,8.91,8.91,0,0,1,1.17.28c.18.06.26.17.22.33l-.15.7c0,.21-.13.26-.3.16a4,4,0,0,0-1-.31,7,7,0,0,0-1.22-.08,4.09,4.09,0,0,0-1.12.14,2.7,2.7,0,0,0-.92.43,2.25,2.25,0,0,0-.62.72,2.09,2.09,0,0,0-.24,1,1.42,1.42,0,0,0,.32.88,4,4,0,0,0,.77.78,8.52,8.52,0,0,0,1,.66c.36.19.68.38,1,.54s.78.47,1.15.71a5.63,5.63,0,0,1,1,.81,4,4,0,0,1,.7,1,2.73,2.73,0,0,1,.27,1.24,3.38,3.38,0,0,1-.37,1.61,3.6,3.6,0,0,1-1,1.18,4.34,4.34,0,0,1-1.41.75A5.21,5.21,0,0,1,528,19a7.47,7.47,0,0,1-1.41-.11A11,11,0,0,1,525.18,18.56Z"/><path class="cls-2" d="M536.58,18.48c0,.17-.08.26-.25.26h-.81c-.17,0-.25-.09-.25-.26V5.91c0-.27,0-.42.08-.47a.84.84,0,0,1,.46-.07H539a4.64,4.64,0,0,1,3.09,1,3.55,3.55,0,0,1,1.16,2.85,3.82,3.82,0,0,1-.34,1.66,3.43,3.43,0,0,1-.92,1.23,4.14,4.14,0,0,1-1.41.75,4.93,4.93,0,0,1-1.73.21h-2.29Zm5.33-9.31a2.74,2.74,0,0,0-.66-2,2.57,2.57,0,0,0-2-.7h-2.7v5.39H538a12.16,12.16,0,0,0,1.56-.09,3.21,3.21,0,0,0,1.19-.38,2.06,2.06,0,0,0,.78-.82A3.38,3.38,0,0,0,541.91,9.17Z"/><path class="cls-2" d="M546.6,18.74h-.87a.23.23,0,0,1-.25-.26V5.66a.23.23,0,0,1,.25-.26h.87c.17,0,.25.09.25.26V18.48C546.85,18.65,546.77,18.74,546.6,18.74Z"/><path class="cls-2" d="M553.86,6.52v12a.23.23,0,0,1-.25.26h-.83c-.17,0-.25-.09-.25-.26v-12h-3.72a.22.22,0,0,1-.25-.25V5.66a.23.23,0,0,1,.25-.26h8.8c.17,0,.25.09.25.26v.61a.22.22,0,0,1-.25.25Z"/><path class="cls-2" d="M568.85,18.48c.06.17,0,.26-.16.26h-.87a.53.53,0,0,1-.19,0s-.1-.1-.15-.22l-1.33-3.31h-6.78c-.23.56-.45,1.11-.66,1.66s-.44,1.09-.65,1.65c0,.12-.1.2-.16.22a.48.48,0,0,1-.18,0h-.85c-.17,0-.23-.09-.17-.26L562,5.58a.33.33,0,0,1,.33-.21h1.1a.32.32,0,0,1,.32.21ZM565.71,14c-.5-1.25-1-2.49-1.45-3.71s-.94-2.45-1.45-3.7c-.5,1.25-1,2.48-1.48,3.7s-1,2.46-1.49,3.71Z"/><path class="cls-2" d="M577.48,17.6a.22.22,0,0,1,.25.25v.63c0,.17-.08.26-.25.26h-6.23a.31.31,0,0,1-.2-.08.34.34,0,0,1-.07-.2c0-.1,0-.23,0-.4V5.66a.23.23,0,0,1,.25-.26h.83a.23.23,0,0,1,.26.26V17.6Z"/><path class="cls-2" d="M593.19,13.87a5.94,5.94,0,0,1-.31,2,5.6,5.6,0,0,1-.81,1.6,4.49,4.49,0,0,1-1.5,1.17,5.06,5.06,0,0,1-4,0,4.46,4.46,0,0,1-1.52-1.17,5.58,5.58,0,0,1-.8-1.6,6.21,6.21,0,0,1-.3-2,5.61,5.61,0,0,1,1.1-3.57,4.27,4.27,0,0,1,3.52-1.56,4.94,4.94,0,0,1,2,.38,4.06,4.06,0,0,1,1.5,1.18A5.64,5.64,0,0,1,593.19,13.87Zm-1.34,0a5.39,5.39,0,0,0-.22-1.58A4.73,4.73,0,0,0,591,11a3,3,0,0,0-2.43-1.15,3.12,3.12,0,0,0-1.36.29,3.29,3.29,0,0,0-1.08.86,4.5,4.5,0,0,0-.64,1.32,5.86,5.86,0,0,0,0,3.18,4.27,4.27,0,0,0,.64,1.3,3,3,0,0,0,2.44,1.17,3,3,0,0,0,1.36-.3,3.54,3.54,0,0,0,1.07-.87,4.48,4.48,0,0,0,.62-1.3A5.43,5.43,0,0,0,591.85,13.87Z"/><path class="cls-2" d="M600,4.25a.32.32,0,0,1,.21.38l0,.52a.18.18,0,0,1-.09.14.29.29,0,0,1-.16,0,2.31,2.31,0,0,0-.37-.1,2,2,0,0,0-.37,0,1.32,1.32,0,0,0-1.37,1.06,8.33,8.33,0,0,0-.13,1.91V9h2c.17,0,.26.08.26.25v.54c0,.17-.09.25-.26.25h-2v8.45c0,.17-.08.26-.25.26h-.7a.23.23,0,0,1-.26-.26V10h-1.74c-.17,0-.26-.08-.26-.25V9.24c0-.17.09-.25.26-.25h1.74V8.25a7.73,7.73,0,0,1,.37-2.83,2.19,2.19,0,0,1,2.23-1.3A3.19,3.19,0,0,1,600,4.25Z"/><path class="cls-2" d="M610.61,12.11l-1.77,2.07v4.3c0,.17-.08.26-.25.26h-.79c-.17,0-.25-.09-.25-.26V5.66c0-.17.08-.26.25-.26h.79c.17,0,.25.09.25.26v6.86l5.57-6.86A.83.83,0,0,1,615,5.4h1a.13.13,0,0,1,.14.09.19.19,0,0,1-.07.17l-4.64,5.45,5.08,7.37c.11.17.08.26-.08.26h-1a.79.79,0,0,1-.32-.06.47.47,0,0,1-.24-.2Z"/><path class="cls-2" d="M630.12,12.07a8,8,0,0,1-1.48,5,6,6,0,0,1-8.84,0,7.8,7.8,0,0,1-1.48-5,9.39,9.39,0,0,1,.36-2.7,7.16,7.16,0,0,1,1-2.15,5.76,5.76,0,0,1,2-1.54,5.89,5.89,0,0,1,2.55-.55,5.82,5.82,0,0,1,2.55.54,5.49,5.49,0,0,1,1.93,1.57,7.21,7.21,0,0,1,1.07,2.17A8.93,8.93,0,0,1,630.12,12.07Zm-1.32,0a7.43,7.43,0,0,0-.29-2.14,6.55,6.55,0,0,0-.81-1.82,4.4,4.4,0,0,0-1.5-1.36,4.32,4.32,0,0,0-4,0,4.34,4.34,0,0,0-1.51,1.36,6.55,6.55,0,0,0-.81,1.82,7.79,7.79,0,0,0-.29,2.14,7.92,7.92,0,0,0,.29,2.15,6.61,6.61,0,0,0,.81,1.83,4.67,4.67,0,0,0,1.53,1.35,4,4,0,0,0,2,.49,4,4,0,0,0,2-.48,4.5,4.5,0,0,0,1.5-1.36,6.61,6.61,0,0,0,.81-1.83A7.55,7.55,0,0,0,628.8,12.07Z"/><path class="cls-2" d="M641.86,18.48a.17.17,0,0,1,0,.17.13.13,0,0,1-.14.09h-.93a.41.41,0,0,1-.4-.26q-.81-1.69-1.35-2.76c-.36-.72-.65-1.28-.85-1.7s-.44-.88-.58-1.14a4.49,4.49,0,0,1-.76.11L636,13h-1.52v5.46c0,.17-.08.26-.25.26h-.81c-.17,0-.25-.09-.25-.26V5.94a2.45,2.45,0,0,1,0-.3.2.2,0,0,1,.06-.16.26.26,0,0,1,.16-.07h3.71a5.24,5.24,0,0,1,1.78.28,3.35,3.35,0,0,1,1.24.79,3.08,3.08,0,0,1,.74,1.22,5.07,5.07,0,0,1,.24,1.6,2.7,2.7,0,0,1-.19,1,3.08,3.08,0,0,1-.51.9,4.44,4.44,0,0,1-.75.75,4.52,4.52,0,0,1-.87.55Zm-2.14-9.19A4.31,4.31,0,0,0,639.55,8a1.77,1.77,0,0,0-.58-.87,2.55,2.55,0,0,0-1.05-.48,8.06,8.06,0,0,0-1.62-.14h-1.86v5.37h1.9a4.92,4.92,0,0,0,1.36-.18,3.23,3.23,0,0,0,1.07-.52,2.6,2.6,0,0,0,.7-.82A2.26,2.26,0,0,0,639.72,9.29Z"/><path class="cls-2" d="M644.8,18.75a.87.87,0,0,1-.44-.06.87.87,0,0,1-.06-.44V5.84a.78.78,0,0,1,.06-.41.75.75,0,0,1,.4-.06H651a.22.22,0,0,1,.25.25v.63a.22.22,0,0,1-.25.25h-5.41v4.76h5.14a.22.22,0,0,1,.25.25v.65a.22.22,0,0,1-.25.25h-5.14V17.6h5.62a.22.22,0,0,1,.25.25v.65a.22.22,0,0,1-.25.25Z"/><path class="cls-2" d="M665.52,18.48c.06.17,0,.26-.16.26h-.87a.58.58,0,0,1-.19,0s-.1-.1-.15-.22l-1.33-3.31H656c-.23.56-.45,1.11-.66,1.66s-.44,1.09-.65,1.65c-.05.12-.1.2-.16.22a.48.48,0,0,1-.18,0h-.85c-.17,0-.22-.09-.16-.26l5.29-12.9a.33.33,0,0,1,.33-.21h1.1a.32.32,0,0,1,.32.21ZM662.38,14c-.5-1.25-1-2.49-1.45-3.71s-.94-2.45-1.45-3.7c-.5,1.25-1,2.48-1.48,3.7s-1,2.46-1.49,3.71Z"/><path class="cls-2" d="M668.65,18.74h-.81c-.17,0-.25-.09-.25-.26V5.87a.87.87,0,0,1,.06-.44.9.9,0,0,1,.44-.06h.83a.79.79,0,0,1,.32,0,.56.56,0,0,1,.17.21l6.79,11.66V5.62a.22.22,0,0,1,.25-.25h.8a.22.22,0,0,1,.25.25V18.23c0,.25,0,.4-.07.44a.8.8,0,0,1-.44.07H675.9a.48.48,0,0,1-.21,0,.6.6,0,0,1-.15-.18L668.91,7.06V18.48A.23.23,0,0,1,668.65,18.74Z"/><path class="cls-2" d="M699.64,18.48c0,.17-.08.26-.25.26h-.81c-.17,0-.25-.09-.25-.26V6.54c-.89,2.21-1.69,4.18-2.4,5.93l-.88,2.18c-.29.72-.55,1.36-.78,1.91s-.41,1-.56,1.36-.21.53-.21.54a.29.29,0,0,1-.27.18h-.81a.26.26,0,0,1-.18,0,.28.28,0,0,1-.09-.14l-5-11.92V18.48c0,.17-.08.26-.25.26h-.81c-.17,0-.25-.09-.25-.26V5.87a.87.87,0,0,1,.06-.44.87.87,0,0,1,.44-.06h1.35a.51.51,0,0,1,.21,0,.46.46,0,0,1,.12.18l4.79,11.66,4.65-11.67a.27.27,0,0,1,.29-.2h1.37a.87.87,0,0,1,.44.06.87.87,0,0,1,.06.44Z"/><path class="cls-2" d="M703.87,18.75a.87.87,0,0,1-.44-.06.87.87,0,0,1-.06-.44V5.84a.78.78,0,0,1,.06-.41.78.78,0,0,1,.41-.06h6.25a.22.22,0,0,1,.25.25v.63a.22.22,0,0,1-.25.25h-5.41v4.76h5.14a.22.22,0,0,1,.25.25v.65a.22.22,0,0,1-.25.25h-5.14V17.6h5.63a.22.22,0,0,1,.25.25v.65a.22.22,0,0,1-.25.25Z"/><path class="cls-2" d="M723.67,12a7.42,7.42,0,0,1-.57,3,5.83,5.83,0,0,1-1.61,2.18,6.92,6.92,0,0,1-2.36,1.14,11.54,11.54,0,0,1-3.13.4h-1.86a.83.83,0,0,1-.44-.07.87.87,0,0,1-.06-.44V5.91a.87.87,0,0,1,.06-.44s.19-.07.44-.07H717a6.69,6.69,0,0,1,5.15,1.86A6.82,6.82,0,0,1,723.67,12ZM722.36,12a5.28,5.28,0,0,0-1.59-4.23,5.68,5.68,0,0,0-3.85-1.21H715V17.6h1.1Q722.36,17.6,722.36,12Z"/><path class="cls-2" d="M727.78,18.74h-.86a.23.23,0,0,1-.26-.26V5.66a.23.23,0,0,1,.26-.26h.86c.17,0,.25.09.25.26V18.48C728,18.65,728,18.74,727.78,18.74Z"/><path class="cls-2" d="M740.18,17.44a.25.25,0,0,1,.19,0,.12.12,0,0,1,.09.13l0,.71a.3.3,0,0,1-.25.32,7.33,7.33,0,0,1-1.23.29,11.52,11.52,0,0,1-1.58.09,6.64,6.64,0,0,1-5-1.91,5.78,5.78,0,0,1-1.36-2.18,8.25,8.25,0,0,1-.44-2.81,6.84,6.84,0,0,1,1.85-5,6.66,6.66,0,0,1,4.94-1.91l.78,0,.69,0,.65.09.69.15a.29.29,0,0,1,.25.34l0,.72c0,.17-.11.22-.27.16a6.35,6.35,0,0,0-1.33-.31,10.18,10.18,0,0,0-1.42-.09,5.26,5.26,0,0,0-4.06,1.63,6,6,0,0,0-1.4,4.14,7.47,7.47,0,0,0,.34,2.34,5,5,0,0,0,1,1.82,5.12,5.12,0,0,0,4.07,1.6c.5,0,1,0,1.5-.1A5,5,0,0,0,740.18,17.44Z"/><path class="cls-2" d="M744.25,18.74h-.87c-.17,0-.25-.09-.25-.26V5.66c0-.17.08-.26.25-.26h.87a.23.23,0,0,1,.25.26V18.48A.23.23,0,0,1,744.25,18.74Z"/><path class="cls-2" d="M748.55,18.74h-.81c-.17,0-.25-.09-.25-.26V5.87a.87.87,0,0,1,.06-.44.87.87,0,0,1,.44-.06h.83a.79.79,0,0,1,.32,0,.56.56,0,0,1,.17.21l6.79,11.66V5.62a.22.22,0,0,1,.25-.25h.79c.17,0,.26.08.26.25V18.23a.83.83,0,0,1-.07.44.83.83,0,0,1-.44.07h-1.1a.56.56,0,0,1-.21,0,.6.6,0,0,1-.15-.18L748.8,7.06V18.48C748.8,18.65,748.72,18.74,748.55,18.74Z"/><path class="cls-2" d="M761.27,18.75a.87.87,0,0,1-.44-.06.87.87,0,0,1-.06-.44V5.84a.78.78,0,0,1,.06-.41.75.75,0,0,1,.4-.06h6.26a.22.22,0,0,1,.25.25v.63a.22.22,0,0,1-.25.25h-5.41v4.76h5.14a.22.22,0,0,1,.25.25v.65a.22.22,0,0,1-.25.25h-5.14V17.6h5.62c.17,0,.26.08.26.25v.65c0,.17-.09.25-.26.25Z"/></g></g></g></svg>