<svg xmlns="http://www.w3.org/2000/svg" viewBox="0 0 62.72 68.88"><defs><style>.cls-1{fill:#004438;}</style></defs><g id="Layer_2" data-name="Layer 2"><g id="Layer_1-2" data-name="Layer 1"><path class="cls-1" d="M45.18,68.88A17.55,17.55,0,0,1,29.8,59.75l-.14-.26h-26A3.67,3.67,0,0,1,0,55.82V7.3A3.68,3.68,0,0,1,3.67,3.63h9.55V.9a.91.91,0,0,1,.91-.9H32a.91.91,0,0,1,.91.9V3.63h9.55A3.68,3.68,0,0,1,46.09,7.3V33.83l.46,0a17.53,17.53,0,0,1-1.37,35Zm0-33.27A15.73,15.73,0,1,0,60.91,51.34,15.74,15.74,0,0,0,45.18,35.61ZM3.67,5.44A1.86,1.86,0,0,0,1.81,7.3V55.82a1.87,1.87,0,0,0,1.86,1.87H28.83L28.61,57A17.46,17.46,0,0,1,43.82,33.87l.46,0V7.3a1.87,1.87,0,0,0-1.87-1.86H39v8.37a.9.9,0,0,1-.9.9h-9l-.08.4a6.2,6.2,0,0,1-12.12,0l-.08-.4H8a.9.9,0,0,1-.9-.9V5.44Zm5.19,7.47h8.89a.9.9,0,0,1,.9.9,4.39,4.39,0,0,0,8.78,0,.9.9,0,0,1,.9-.9h8.9V5.44H32.86V8.18a.9.9,0,0,1-.91.9H14.13a.9.9,0,0,1-.91-.9V5.44H8.86ZM15,7.27h16V1.81H15Z"/><path d="M43.36,61.15a.87.87,0,0,1-.68-.31l-6.62-7.6a.91.91,0,0,1-.22-.66.89.89,0,0,1,.31-.61.88.88,0,0,1,.59-.23.93.93,0,0,1,.68.31l5.79,6.65,8.19-14a.9.9,0,0,1,1.23-.33A.91.91,0,0,1,53,45.57L44.14,60.7a.9.9,0,0,1-.78.45Z"/><path d="M9.34,27.62a.91.91,0,0,1,0-1.81h27.4a.91.91,0,1,1,0,1.81Z"/><path d="M9.34,38.28a.91.91,0,0,1,0-1.81H24.71a.91.91,0,0,1,0,1.81Z"/><path d="M9.34,48.93a.9.9,0,0,1,0-1.8H20a.9.9,0,0,1,0,1.8Z"/></g></g></svg>