<svg xmlns="http://www.w3.org/2000/svg" viewBox="0 0 47.51 54.3"><defs><style>.cls-1{opacity:0.3;}</style></defs><g id="Layer_2" data-name="Layer 2"><g id="Layer_1-2" data-name="Layer 1"><path class="cls-1" d="M10.18,0A10.18,10.18,0,0,0,0,10.18V37.33A10.2,10.2,0,0,0,8.6,47.4L3.72,52.28a1.19,1.19,0,0,0,.84,2H8.77a3.42,3.42,0,0,0,2.4-1l5.8-5.8H30.54l5.8,5.8a3.38,3.38,0,0,0,2.39,1H43a1.18,1.18,0,0,0,.84-2L38.91,47.4a10.18,10.18,0,0,0,8.6-10.07V10.18A10.18,10.18,0,0,0,37.33,0ZM6.79,13.58a3.39,3.39,0,0,1,3.39-3.4h8.49a3.4,3.4,0,0,1,3.39,3.4V23.76a3.39,3.39,0,0,1-3.39,3.39H10.18a3.39,3.39,0,0,1-3.39-3.39Zm22.06-3.4h8.48a3.4,3.4,0,0,1,3.4,3.4V23.76a3.4,3.4,0,0,1-3.4,3.39H28.85a3.4,3.4,0,0,1-3.4-3.39V13.58A3.4,3.4,0,0,1,28.85,10.18ZM6.79,37.33a3.4,3.4,0,1,1,3.39,3.4A3.39,3.39,0,0,1,6.79,37.33Zm30.54-3.39a3.4,3.4,0,1,1-3.39,3.39A3.4,3.4,0,0,1,37.33,33.94Z"/></g></g></svg>