<svg xmlns="http://www.w3.org/2000/svg" viewBox="0 0 60.76 60.76"><defs><style>.cls-1{fill:#004438;}</style></defs><g id="Layer_2" data-name="Layer 2"><g id="Layer_1-2" data-name="Layer 1"><rect class="cls-1" x="29.76" y="9.61" width="1.95" height="25.09"/><rect class="cls-1" x="24.98" y="26.55" width="17.15" height="1.95" transform="translate(-9.81 25.85) rotate(-37.16)"/><rect class="cls-1" x="29.76" width="1.95" height="4.02"/><rect class="cls-1" x="15.53" y="3.62" width="1.95" height="4.02" transform="translate(-0.61 9.01) rotate(-30)"/><rect class="cls-1" x="5.01" y="13.88" width="1.95" height="4.02" transform="translate(-10.76 13.13) rotate(-60)"/><rect class="cls-1" y="29.05" width="4.02" height="1.95"/><rect class="cls-1" x="3.62" y="43.28" width="4.02" height="1.95" transform="translate(-21.37 8.75) rotate(-30)"/><rect class="cls-1" x="13.88" y="53.8" width="4.02" height="1.95" transform="translate(-39.49 41.15) rotate(-60)"/><rect class="cls-1" x="29.05" y="56.74" width="1.95" height="4.02"/><rect class="cls-1" x="43.28" y="53.12" width="1.95" height="4.02" transform="matrix(0.87, -0.5, 0.5, 0.87, -21.63, 29.52)"/><rect class="cls-1" x="53.8" y="42.86" width="1.95" height="4.02" transform="translate(-11.47 69.87) rotate(-60)"/><rect class="cls-1" x="56.74" y="29.76" width="4.02" height="1.95"/><rect class="cls-1" x="53.12" y="15.53" width="4.02" height="1.95" transform="translate(-0.86 29.78) rotate(-30)"/><rect class="cls-1" x="42.86" y="5.01" width="4.02" height="1.95" transform="translate(17.25 41.86) rotate(-60.01)"/></g></g></svg>