<svg xmlns="http://www.w3.org/2000/svg" viewBox="0 0 47.51 47.51"><defs><style>.cls-1{opacity:0.3;}</style></defs><g id="Layer_2" data-name="Layer 2"><g id="Layer_1-2" data-name="Layer 1"><path class="cls-1" d="M6.79,0A6.79,6.79,0,0,0,0,6.79V40.73a6.79,6.79,0,0,0,6.79,6.78H40.73a6.79,6.79,0,0,0,6.78-6.78V6.79A6.79,6.79,0,0,0,40.73,0ZM20.36,23.76h5.09a3.4,3.4,0,1,0,0-6.79H20.36Zm5.09,6.78H20.36v3.4a3.39,3.39,0,0,1-6.78,0V14.42a4.24,4.24,0,0,1,4.24-4.24h7.63a10.18,10.18,0,1,1,0,20.36Z"/></g></g></svg>