<svg xmlns="http://www.w3.org/2000/svg" viewBox="0 0 54.3 54.3"><defs><style>.cls-1{opacity:0.3;}</style></defs><g id="Layer_2" data-name="Layer 2"><g id="Layer_1-2" data-name="Layer 1"><path class="cls-1" d="M27.15,0C41.41,0,50.91,3.73,50.91,8.48v5.1A3.38,3.38,0,0,1,54.3,17v6.79a3.39,3.39,0,0,1-3.39,3.39v17a3.39,3.39,0,0,1-3.4,3.39v3.4a3.38,3.38,0,0,1-3.39,3.39H40.73a3.39,3.39,0,0,1-3.4-3.39v-3.4H17v3.4a3.39,3.39,0,0,1-3.39,3.39h-3.4a3.38,3.38,0,0,1-3.39-3.39v-3.4a3.39,3.39,0,0,1-3.4-3.39v-17A3.39,3.39,0,0,1,0,23.76V17a3.39,3.39,0,0,1,3.39-3.39h0v-3.4h0V8.48C3.39,3.73,12.9,0,27.15,0Zm-17,17V27.15a3.39,3.39,0,0,0,3.4,3.39H25.45v-17H13.58A3.39,3.39,0,0,0,10.18,17ZM28.85,30.54H40.73a3.39,3.39,0,0,0,3.39-3.39V17a3.39,3.39,0,0,0-3.39-3.39H28.85Zm-17,11.88A3.39,3.39,0,1,0,8.48,39,3.39,3.39,0,0,0,11.88,42.42Zm30.54,0A3.39,3.39,0,1,0,39,39,3.4,3.4,0,0,0,42.42,42.42ZM37.33,8.48a1.69,1.69,0,0,0-1.69-1.69h-17a1.7,1.7,0,1,0,0,3.39h17A1.7,1.7,0,0,0,37.33,8.48Z"/></g></g></svg>