<svg xmlns="http://www.w3.org/2000/svg" viewBox="0 0 71.38 64.6"><defs><style>.cls-1,.cls-2{fill:none;stroke:#004438;stroke-miterlimit:10;stroke-width:1.5px;}.cls-2{fill-rule:evenodd;}</style></defs><g id="Layer_2" data-name="Layer 2"><g id="Layer_1-2" data-name="Layer 1"><ellipse class="cls-1" cx="17.81" cy="35.05" rx="12.59" ry="5.24"/><path class="cls-1" d="M3,18.43H3a2.25,2.25,0,0,1,2.25,2.25V63.85a0,0,0,0,1,0,0H.75a0,0,0,0,1,0,0V20.68A2.25,2.25,0,0,1,3,18.43Z"/><rect class="cls-1" x="5.26" y="49.83" width="60.87" height="5.92"/><path class="cls-1" d="M70.63,63.85V35.3a2.26,2.26,0,1,0-4.51,0V63.85Z"/><path class="cls-1" d="M8.47,40.29H61.9a4.22,4.22,0,0,1,4.22,4.22v5.32a0,0,0,0,1,0,0H5.26a0,0,0,0,1,0,0V43.5A3.21,3.21,0,0,1,8.47,40.29Z"/><line class="cls-1" x1="51.89" x2="51.89" y2="39.94"/><line class="cls-1" x1="54.64" y1="6.98" x2="37.9" y2="6.98"/><path class="cls-1" d="M38,7h7.5a.12.12,0,0,1,.12.12v7.66a3.87,3.87,0,0,1-3.87,3.87h0a3.87,3.87,0,0,1-3.87-3.87V7.1A.12.12,0,0,1,38,7Z"/><path class="cls-2" d="M41.77,18.64c0,13.83-.29,20-10,21.65"/></g></g></svg>